<svg xmlns="http://www.w3.org/2000/svg" viewBox="0 0 24 24">
  <path d="M3,3v18h18V3H3z M13.666,12.451h-2.118V19H9.841v-6.549H7.767V11h5.899V12.451z M13.998,18.626v-1.751 c0,0,0.956,0.721,2.164,0.721c1.208,0,1.164-0.79,1.164-0.881c0-1.129-3.436-1.129-3.436-3.639c0-1.698,1.265-2.358,2.969-2.358 c1.208,0,2.245,0.511,2.245,0.511v1.653c0,0-0.924-0.484-1.923-0.484s-1.461,0.401-1.461,0.881c0,1.177,3.46,1.082,3.46,3.639 c0,1.604-1.265,2.358-2.831,2.358C15.066,19.276,13.998,18.626,13.998,18.626z"/></svg> 